<svg xmlns="http://www.w3.org/2000/svg" version="1.1" xmlns:xlink="http://www.w3.org/1999/xlink" xmlns:svgjs="http://svgjs.dev/svgjs" width="1500" height="2744" viewBox="0 0 1500 2744"><g transform="matrix(1,0,0,1,-0.38996047184321014,1.1109311740890462)"><svg viewBox="0 0 135 247" data-background-color="#000000" preserveAspectRatio="xMidYMid meet" height="2744" width="1500" xmlns="http://www.w3.org/2000/svg" xmlns:xlink="http://www.w3.org/1999/xlink"><g id="tight-bounds" transform="matrix(1,0,0,1,0.0350964424658855,-0.09999999999999432)"><svg viewBox="0 0 134.9298071150682 247.2" height="247.2" width="134.9298071150682"><g><svg viewBox="0 0 251.68200836820083 461.0974683715481" height="247.2" width="134.9298071150682"><g transform="matrix(1,0,0,1,0,213.89746837154811)"><svg viewBox="0 0 251.68200836820083 247.2" height="247.2" width="251.68200836820083"><g id="textblocktransform"><svg viewBox="0 0 251.68200836820083 247.2" height="247.2" width="251.68200836820083" id="textblock"><g><svg viewBox="0 0 251.68200836820083 247.2" height="247.2" width="251.68200836820083"><g transform="matrix(1,0,0,1,0,0)"><svg width="251.68200836820083" viewBox="0.65 -35.85 36.5 35.85" height="247.2" data-palette-color="url(#f06ac217-8cc5-49e9-91fc-b21ce7e5a71f)"></svg></g></svg></g></svg></g></svg></g><g transform="matrix(1,0,0,1,48.071263598326354,0)"><svg viewBox="0 0 155.53948117154812 155.53948117154812" height="155.53948117154812" width="155.53948117154812"><g><svg></svg></g><g id="icon-0"><svg viewBox="0 0 155.53948117154812 155.53948117154812" height="155.53948117154812" width="155.53948117154812"><g></g><g transform="matrix(1,0,0,1,41.32968969595178,31.107896234309628)"><svg viewBox="0 0 72.88010177964456 93.32368870292886" height="93.32368870292886" width="72.88010177964456"><g><svg xmlns="http://www.w3.org/2000/svg" xmlns:xlink="http://www.w3.org/1999/xlink" version="1.1" x="0" y="0" viewBox="24.628757868756324 16 51.54248426248735 66.00065914879734" style="enable-background:new 0 0 100 100;" xml:space="preserve" height="93.32368870292886" width="72.88010177964456" class="icon-cg-0" data-fill-palette-color="quaternary" id="cg-0"><g fill="#000000" data-fill-palette-color="quaternary"><g fill="#000000" data-fill-palette-color="quaternary"><path d="M34.5 31.6C34.5 40.1 41.4 47 50 47s15.5-6.9 15.5-15.5c0-8.6-6.9-15.5-15.5-15.5S34.5 23 34.5 31.6zM64.5 31.6C64.5 39.6 58 46 50 46s-14.5-6.5-14.5-14.5S42 17.1 50 17.1 64.5 23.6 64.5 31.6z" fill="#000000" data-fill-palette-color="quaternary"></path></g><g fill="#000000" data-fill-palette-color="quaternary"><path d="M73.8 62.9C68 55.2 59.6 50.4 50.4 50.4c-9.3 0-17.6 4.8-23.4 12.5-5.9 7.9-0.1 19.1 9.8 19.1H64C73.9 82.1 79.7 70.8 73.8 62.9zM64 81.1H36.8c-4.2 0-8.1-2.4-10-6.2-1.9-3.8-1.5-8 1-11.3 5.8-7.7 14-12.1 22.6-12.1 8.5 0 16.8 4.4 22.6 12.1 2.5 3.3 2.9 7.6 1 11.3C72.1 78.7 68.3 81.1 64 81.1z" fill="#000000" data-fill-palette-color="quaternary"></path></g></g></svg></g></svg></g></svg></g></svg></g><g></g></svg></g><defs></defs><mask id="2cc4624e-4033-4a36-85d1-4da65e559d78"><g id="SvgjsG3159"><svg viewBox="0 0 134.9298071150682 247.2" height="247.2" width="134.9298071150682"><g><svg viewBox="0 0 251.68200836820083 461.0974683715481" height="247.2" width="134.9298071150682"><g transform="matrix(1,0,0,1,0,213.89746837154811)"><svg viewBox="0 0 251.68200836820083 247.2" height="247.2" width="251.68200836820083"><g id="SvgjsG3158"><svg viewBox="0 0 251.68200836820083 247.2" height="247.2" width="251.68200836820083" id="SvgjsSvg3157"><g><svg viewBox="0 0 251.68200836820083 247.2" height="247.2" width="251.68200836820083"><g transform="matrix(1,0,0,1,0,0)"><svg width="251.68200836820083" viewBox="0.65 -35.85 36.5 35.85" height="247.2" data-palette-color="url(#f06ac217-8cc5-49e9-91fc-b21ce7e5a71f)"><path d="M5.85 0L2.1 0 16.45-35.85 21.35-35.85 35.7 0 31.95 0Q31.3 0 30.9-0.33 30.5-0.65 30.3-1.15L30.3-1.15 19.95-27.9Q19.7-28.6 19.43-29.43 19.15-30.25 18.9-31.25L18.9-31.25Q18.6-30.25 18.35-29.4 18.1-28.55 17.85-27.85L17.85-27.85 7.5-1.15Q7.35-0.7 6.93-0.35 6.5 0 5.85 0L5.85 0ZM8.45 0L5.8 0 5.8-3.1 8.45-3.1 8.45 0ZM27.7-10.6L10.25-10.6 11.6-14.1 26.35-14.1 27.7-10.6ZM32.15 0L29.5 0 29.5-3.1 32.15-3.1 32.15 0ZM5.75 0L0.65 0 0.65-2.05Q0.65-2.5 0.85-2.78 1.05-3.05 1.45-3.1L1.45-3.1 5.2-3.9 5.75 0ZM11.1 0L6 0 6.55-3.9 10.3-3.1Q10.7-3.05 10.9-2.78 11.1-2.5 11.1-2.05L11.1-2.05 11.1 0ZM31.8 0L26.7 0 26.7-2.05Q26.7-2.5 26.9-2.78 27.1-3.05 27.5-3.1L27.5-3.1 31.25-3.9 31.8 0ZM37.15 0L32.05 0 32.6-3.9 36.35-3.1Q36.75-3.05 36.95-2.78 37.15-2.5 37.15-2.05L37.15-2.05 37.15 0Z" opacity="1" transform="matrix(1,0,0,1,0,0)" fill="white" class="wordmark-text-0" id="SvgjsPath3156"></path></svg></g></svg></g></svg></g></svg></g><g transform="matrix(1,0,0,1,48.071263598326354,0)"><svg viewBox="0 0 155.53948117154812 155.53948117154812" height="155.53948117154812" width="155.53948117154812"><g><svg></svg></g><g id="SvgjsG3155"><svg viewBox="0 0 155.53948117154812 155.53948117154812" height="155.53948117154812" width="155.53948117154812"><g><path transform="scale(1.55539,1.55539)" d="M30 100c-16.569 0-30-13.431-30-30v-40c0-16.569 13.431-30 30-30h40c16.569 0 30 13.431 30 30v40c0 16.569-13.431 30-30 30z" fill="black" fill-rule="nonzero" stroke="none" stroke-width="1" stroke-linecap="butt" stroke-linejoin="miter" stroke-miterlimit="10" stroke-dasharray="" stroke-dashoffset="0" font-family="none" font-weight="none" font-size="none" text-anchor="none" style="mix-blend-mode: normal"></path></g><g transform="matrix(1,0,0,1,41.32968969595178,31.107896234309628)"><svg viewBox="0 0 72.88010177964456 93.32368870292886" height="93.32368870292886" width="72.88010177964456"><g><svg xmlns="http://www.w3.org/2000/svg" xmlns:xlink="http://www.w3.org/1999/xlink" version="1.1" x="0" y="0" viewBox="24.628757868756324 16 51.54248426248735 66.00065914879734" style="enable-background:new 0 0 100 100;" xml:space="preserve" height="93.32368870292886" width="72.88010177964456" class="icon-cg-0" data-fill-palette-color="quaternary" id="SvgjsSvg3154"><g fill="black"><g fill="black"><path d="M34.5 31.6C34.5 40.1 41.4 47 50 47s15.5-6.9 15.5-15.5c0-8.6-6.9-15.5-15.5-15.5S34.5 23 34.5 31.6zM64.5 31.6C64.5 39.6 58 46 50 46s-14.5-6.5-14.5-14.5S42 17.1 50 17.1 64.5 23.6 64.5 31.6z" fill="black"></path></g><g fill="black"><path d="M73.8 62.9C68 55.2 59.6 50.4 50.4 50.4c-9.3 0-17.6 4.8-23.4 12.5-5.9 7.9-0.1 19.1 9.8 19.1H64C73.9 82.1 79.7 70.8 73.8 62.9zM64 81.1H36.8c-4.2 0-8.1-2.4-10-6.2-1.9-3.8-1.5-8 1-11.3 5.8-7.7 14-12.1 22.6-12.1 8.5 0 16.8 4.4 22.6 12.1 2.5 3.3 2.9 7.6 1 11.3C72.1 78.7 68.3 81.1 64 81.1z" fill="black"></path></g></g></svg></g></svg></g></svg></g></svg></g><g></g></svg></g><defs><mask></mask></defs></svg><rect width="134.9298071150682" height="247.2" fill="black" stroke="none" visibility="hidden"></rect></g></mask><linearGradient x1="0" x2="1" y1="0.5" y2="0.5" id="f06ac217-8cc5-49e9-91fc-b21ce7e5a71f"><stop stop-color="#ffa62e" offset="0"></stop><stop stop-color="#f71b3d" offset="1"></stop></linearGradient><rect width="134.9298071150682" height="247.2" fill="url(#f06ac217-8cc5-49e9-91fc-b21ce7e5a71f)" mask="url(#2cc4624e-4033-4a36-85d1-4da65e559d78)" data-fill-palette-color="primary"></rect><mask id="3cfa464d-8c9e-4715-b5b9-c696c23fe789"><g id="SvgjsG3182"><svg viewBox="0 0 134.9298071150682 247.2" height="247.2" width="134.9298071150682"><g><svg viewBox="0 0 251.68200836820083 461.0974683715481" height="247.2" width="134.9298071150682"><g transform="matrix(1,0,0,1,0,213.89746837154811)"><svg viewBox="0 0 251.68200836820083 247.2" height="247.2" width="251.68200836820083"><g id="SvgjsG3181"><svg viewBox="0 0 251.68200836820083 247.2" height="247.2" width="251.68200836820083" id="SvgjsSvg3180"><g><svg viewBox="0 0 251.68200836820083 247.2" height="247.2" width="251.68200836820083"><g transform="matrix(1,0,0,1,0,0)"><svg width="251.68200836820083" viewBox="0.65 -35.85 36.5 35.85" height="247.2" data-palette-color="url(#f06ac217-8cc5-49e9-91fc-b21ce7e5a71f)"></svg></g></svg></g></svg></g></svg></g><g transform="matrix(1,0,0,1,48.071263598326354,0)"><svg viewBox="0 0 155.53948117154812 155.53948117154812" height="155.53948117154812" width="155.53948117154812"><g><svg></svg></g><g id="SvgjsG3179"><svg viewBox="0 0 155.53948117154812 155.53948117154812" height="155.53948117154812" width="155.53948117154812"><g><path transform="scale(1.55539,1.55539)" d="M30 100c-16.569 0-30-13.431-30-30v-40c0-16.569 13.431-30 30-30h40c16.569 0 30 13.431 30 30v40c0 16.569-13.431 30-30 30z" fill="white" fill-rule="nonzero" stroke="none" stroke-width="1" stroke-linecap="butt" stroke-linejoin="miter" stroke-miterlimit="10" stroke-dasharray="" stroke-dashoffset="0" font-family="none" font-weight="none" font-size="none" text-anchor="none" style="mix-blend-mode: normal"></path></g><g transform="matrix(1,0,0,1,41.32968969595178,31.107896234309628)"><svg viewBox="0 0 72.88010177964456 93.32368870292886" height="93.32368870292886" width="72.88010177964456"><g><svg xmlns="http://www.w3.org/2000/svg" xmlns:xlink="http://www.w3.org/1999/xlink" version="1.1" x="0" y="0" viewBox="24.628757868756324 16 51.54248426248735 66.00065914879734" style="enable-background:new 0 0 100 100;" xml:space="preserve" height="93.32368870292886" width="72.88010177964456" class="icon-cg-0" data-fill-palette-color="quaternary" id="SvgjsSvg3178"><g fill="black"><g fill="black"><path d="M34.5 31.6C34.5 40.1 41.4 47 50 47s15.5-6.9 15.5-15.5c0-8.6-6.9-15.5-15.5-15.5S34.5 23 34.5 31.6zM64.5 31.6C64.5 39.6 58 46 50 46s-14.5-6.5-14.5-14.5S42 17.1 50 17.1 64.5 23.6 64.5 31.6z" fill="black"></path></g><g fill="black"><path d="M73.8 62.9C68 55.2 59.6 50.4 50.4 50.4c-9.3 0-17.6 4.8-23.4 12.5-5.9 7.9-0.1 19.1 9.8 19.1H64C73.9 82.1 79.7 70.8 73.8 62.9zM64 81.1H36.8c-4.2 0-8.1-2.4-10-6.2-1.9-3.8-1.5-8 1-11.3 5.8-7.7 14-12.1 22.6-12.1 8.5 0 16.8 4.4 22.6 12.1 2.5 3.3 2.9 7.6 1 11.3C72.1 78.7 68.3 81.1 64 81.1z" fill="black"></path></g></g></svg></g></svg></g></svg></g></svg></g><g></g></svg></g><defs><mask></mask></defs><mask><g id="SvgjsG3177"><svg viewBox="0 0 134.9298071150682 247.2" height="247.2" width="134.9298071150682"><g><svg viewBox="0 0 251.68200836820083 461.0974683715481" height="247.2" width="134.9298071150682"><g transform="matrix(1,0,0,1,0,213.89746837154811)"><svg viewBox="0 0 251.68200836820083 247.2" height="247.2" width="251.68200836820083"><g id="SvgjsG3176"><svg viewBox="0 0 251.68200836820083 247.2" height="247.2" width="251.68200836820083" id="SvgjsSvg3175"><g><svg viewBox="0 0 251.68200836820083 247.2" height="247.2" width="251.68200836820083"><g transform="matrix(1,0,0,1,0,0)"><svg width="251.68200836820083" viewBox="0.65 -35.85 36.5 35.85" height="247.2" data-palette-color="url(#f06ac217-8cc5-49e9-91fc-b21ce7e5a71f)"><path d="M5.85 0L2.1 0 16.45-35.85 21.35-35.85 35.7 0 31.95 0Q31.3 0 30.9-0.33 30.5-0.65 30.3-1.15L30.3-1.15 19.95-27.9Q19.7-28.6 19.43-29.43 19.15-30.25 18.9-31.25L18.9-31.25Q18.6-30.25 18.35-29.4 18.1-28.55 17.85-27.85L17.85-27.85 7.5-1.15Q7.35-0.7 6.93-0.35 6.5 0 5.85 0L5.85 0ZM8.45 0L5.8 0 5.8-3.1 8.45-3.1 8.45 0ZM27.7-10.6L10.25-10.6 11.6-14.1 26.35-14.1 27.7-10.6ZM32.15 0L29.5 0 29.5-3.1 32.15-3.1 32.15 0ZM5.75 0L0.65 0 0.65-2.05Q0.65-2.5 0.85-2.78 1.05-3.05 1.45-3.1L1.45-3.1 5.2-3.9 5.75 0ZM11.1 0L6 0 6.55-3.9 10.3-3.1Q10.7-3.05 10.9-2.78 11.1-2.5 11.1-2.05L11.1-2.05 11.1 0ZM31.8 0L26.7 0 26.7-2.05Q26.7-2.5 26.9-2.78 27.1-3.05 27.5-3.1L27.5-3.1 31.25-3.9 31.8 0ZM37.15 0L32.05 0 32.6-3.9 36.35-3.1Q36.75-3.05 36.95-2.78 37.15-2.5 37.15-2.05L37.15-2.05 37.15 0Z" opacity="1" transform="matrix(1,0,0,1,0,0)" fill="black" class="wordmark-text-0" id="SvgjsPath3174"></path></svg></g></svg></g></svg></g></svg></g><g transform="matrix(1,0,0,1,48.071263598326354,0)"><svg viewBox="0 0 155.53948117154812 155.53948117154812" height="155.53948117154812" width="155.53948117154812"><g><svg></svg></g><g id="SvgjsG3173"><svg viewBox="0 0 155.53948117154812 155.53948117154812" height="155.53948117154812" width="155.53948117154812"><g><path transform="scale(1.55539,1.55539)" d="M30 100c-16.569 0-30-13.431-30-30v-40c0-16.569 13.431-30 30-30h40c16.569 0 30 13.431 30 30v40c0 16.569-13.431 30-30 30z" fill="black" fill-rule="nonzero" stroke="none" stroke-width="1" stroke-linecap="butt" stroke-linejoin="miter" stroke-miterlimit="10" stroke-dasharray="" stroke-dashoffset="0" font-family="none" font-weight="none" font-size="none" text-anchor="none" style="mix-blend-mode: normal"></path></g><g transform="matrix(1,0,0,1,41.32968969595178,31.107896234309628)"><svg viewBox="0 0 72.88010177964456 93.32368870292886" height="93.32368870292886" width="72.88010177964456"><g><svg xmlns="http://www.w3.org/2000/svg" xmlns:xlink="http://www.w3.org/1999/xlink" version="1.1" x="0" y="0" viewBox="24.628757868756324 16 51.54248426248735 66.00065914879734" style="enable-background:new 0 0 100 100;" xml:space="preserve" height="93.32368870292886" width="72.88010177964456" class="icon-cg-0" data-fill-palette-color="quaternary" id="SvgjsSvg3172"><g fill="black"><g fill="black"><path d="M34.5 31.6C34.5 40.1 41.4 47 50 47s15.5-6.9 15.5-15.5c0-8.6-6.9-15.5-15.5-15.5S34.5 23 34.5 31.6zM64.5 31.6C64.5 39.6 58 46 50 46s-14.5-6.5-14.5-14.5S42 17.1 50 17.1 64.5 23.6 64.5 31.6z" fill="black"></path></g><g fill="black"><path d="M73.8 62.9C68 55.2 59.6 50.4 50.4 50.4c-9.3 0-17.6 4.8-23.4 12.5-5.9 7.9-0.1 19.1 9.8 19.1H64C73.9 82.1 79.7 70.8 73.8 62.9zM64 81.1H36.8c-4.2 0-8.1-2.4-10-6.2-1.9-3.8-1.5-8 1-11.3 5.8-7.7 14-12.1 22.6-12.1 8.5 0 16.8 4.4 22.6 12.1 2.5 3.3 2.9 7.6 1 11.3C72.1 78.7 68.3 81.1 64 81.1z" fill="black"></path></g></g></svg></g></svg></g></svg></g></svg></g><g></g></svg></g><defs><mask></mask></defs></svg><rect width="134.9298071150682" height="247.2" fill="black" stroke="none" visibility="hidden"></rect></g></mask></svg><rect width="134.9298071150682" height="247.2" fill="black" stroke="none" visibility="hidden"></rect></g></mask><linearGradient x1="0" x2="1" y1="0.5" y2="0.5" id="9499ea01-af7e-4a94-961b-91f8cb1310bf"><stop stop-color="#ffa62e" offset="0"></stop><stop stop-color="#f71b3d" offset="1"></stop></linearGradient><rect width="134.9298071150682" height="247.2" fill="url(#9499ea01-af7e-4a94-961b-91f8cb1310bf)" mask="url(#3cfa464d-8c9e-4715-b5b9-c696c23fe789)" data-fill-palette-color="accent"></rect></svg><rect width="134.9298071150682" height="247.2" fill="none" stroke="none" visibility="hidden"></rect></g></svg></g></svg>